{
  "accessors": [
    {
      "bufferView": 2,
      "componentType": 5126,
      "count": 697,
      "max": [
        256.85232543945312,
        -980.3675537109375,
        247.23684692382812
      ],
      "min": [
        -256.85235595703125,
        -1494.072021484375,
        -247.23696899414062
      ],
      "type": "VEC3"
    },
    {
      "bufferView": 2,
      "byteOffset": 8364,
      "componentType": 5126,
      "count": 697,
      "max": [
        2.0408163070678711,
        2.0408163070678711,
        2.0408163070678711
      ],
      "min": [
        -2.0408163070678711,
        -2.0408163070678711,
        -2.0408163070678711
      ],
      "type": "VEC3"
    },
    {
      "bufferView": 3,
      "componentType": 5126,
      "count": 697,
      "max": [
        1,
        1,
        1,
        1
      ],
      "min": [
        -1,
        -1,
        -0.86603754758834839,
        -1
      ],
      "type": "VEC4"
    },
    {
      "bufferView": 1,
      "componentType": 5126,
      "count": 697,
      "max": [
        0.97974765300750732,
        0.9810643196105957
      ],
      "min": [
        0.023519905284047127,
        0.018820848315954208
      ],
      "type": "VEC2"
    },
    {
      "bufferView": 0,
      "componentType": 5125,
      "count": 1326,
      "max": [
        696
      ],
      "min": [
        0
      ],
      "type": "SCALAR"
    },
    {
      "bufferView": 2,
      "byteOffset": 16728,
      "componentType": 5126,
      "count": 1209,
      "max": [
        181.35061645507812,
        8.0070876720128581e-06,
        148.38505554199219
      ],
      "min": [
        -181.35064697265625,
        -1285.8662109375,
        -231.88301086425781
      ],
      "type": "VEC3"
    },
    {
      "bufferView": 2,
      "byteOffset": 31236,
      "componentType": 5126,
      "count": 1209,
      "max": [
        2.0408163070678711,
        2.0408163070678711,
        2.0408163070678711
      ],
      "min": [
        -2.0408163070678711,
        -2.0408163070678711,
        -2.0408163070678711
      ],
      "type": "VEC3"
    },
    {
      "bufferView": 3,
      "byteOffset": 11152,
      "componentType": 5126,
      "count": 1209,
      "max": [
        1,
        1,
        1,
        1
      ],
      "min": [
        -1,
        -1,
        -1,
        -1
      ],
      "type": "VEC4"
    },
    {
      "bufferView": 1,
      "byteOffset": 5576,
      "componentType": 5126,
      "count": 1209,
      "max": [
        0.98082828521728516,
        0.98120766878128052
      ],
      "min": [
        0.021121088415384293,
        0.018912428990006447
      ],
      "type": "VEC2"
    },
    {
      "bufferView": 0,
      "byteOffset": 5304,
      "componentType": 5125,
      "count": 2316,
      "max": [
        1208
      ],
      "min": [
        0
      ],
      "type": "SCALAR"
    },
    {
      "bufferView": 4,
      "componentType": 5126,
      "count": 1,
      "max": [
        1,
        0,
        0,
        0,
        0,
        1,
        0,
        0,
        0,
        0,
        1,
        0,
        0,
        0,
        0,
        1
      ],
      "min": [
        1,
        0,
        0,
        0,
        0,
        1,
        0,
        0,
        0,
        0,
        1,
        0,
        0,
        0,
        0,
        1
      ],
      "type": "MAT4"
    }
  ],
  "asset": {
    "extras": {
      "author": "BytesCrafter (https://sketchfab.com/BytesCrafter)",
      "license": "CC-BY-4.0 (http://creativecommons.org/licenses/by/4.0/)",
      "source": "https://sketchfab.com/models/6343ca3834f54dad9b4403c18aefaf8e",
      "title": "Wooden Windmill"
    },
    "generator": "Sketchfab-3.18.6",
    "version": "2.0"
  },
  "bufferViews": [
    {
      "buffer": 0,
      "byteLength": 14568,
      "byteOffset": 0,
      "name": "floatBufferViews",
      "target": 34963
    },
    {
      "buffer": 0,
      "byteLength": 15248,
      "byteOffset": 14568,
      "byteStride": 8,
      "name": "floatBufferViews",
      "target": 34962
    },
    {
      "buffer": 0,
      "byteLength": 45744,
      "byteOffset": 29816,
      "byteStride": 12,
      "name": "floatBufferViews",
      "target": 34962
    },
    {
      "buffer": 0,
      "byteLength": 30496,
      "byteOffset": 75560,
      "byteStride": 16,
      "name": "floatBufferViews",
      "target": 34962
    },
    {
      "buffer": 0,
      "byteLength": 64,
      "byteOffset": 106056,
      "byteStride": 64,
      "name": "floatBufferViews"
    }
  ],
  "buffers": [
    {
      "byteLength": 106120,
      "uri": "scene.bin"
    }
  ],
  "images": [
    {
      "uri": "textures/RL_Fan_baseColor.png"
    },
    {
      "uri": "textures/RL_Windmill_baseColor.png"
    }
  ],
  "materials": [
    {
      "doubleSided": true,
      "emissiveFactor": [
        0,
        0,
        0
      ],
      "name": "RL_Fan",
      "pbrMetallicRoughness": {
        "baseColorFactor": [
          1,
          1,
          1,
          1
        ],
        "baseColorTexture": {
          "index": 0,
          "texCoord": 0
        },
        "metallicFactor": 0,
        "roughnessFactor": 0.59999999999999998
      }
    },
    {
      "doubleSided": true,
      "emissiveFactor": [
        0,
        0,
        0
      ],
      "name": "RL_Windmill",
      "pbrMetallicRoughness": {
        "baseColorFactor": [
          1,
          1,
          1,
          1
        ],
        "baseColorTexture": {
          "index": 1,
          "texCoord": 0
        },
        "metallicFactor": 0,
        "roughnessFactor": 0.59999999999999998
      }
    }
  ],
  "meshes": [
    {
      "primitives": [
        {
          "attributes": {
            "NORMAL": 1,
            "POSITION": 0,
            "TANGENT": 2,
            "TEXCOORD_0": 3
          },
          "indices": 4,
          "material": 0,
          "mode": 4
        }
      ]
    },
    {
      "primitives": [
        {
          "attributes": {
            "NORMAL": 6,
            "POSITION": 5,
            "TANGENT": 7,
            "TEXCOORD_0": 8
          },
          "indices": 9,
          "material": 1,
          "mode": 4
        }
      ]
    }
  ],
  "nodes": [
    {
      "children": [
        1
      ],
      "name": "RootNode (gltf orientation matrix)",
      "rotation": [
        -0.70710678118654746,
        -0,
        -0,
        0.70710678118654757
      ]
    },
    {
      "children": [
        2
      ],
      "name": "RootNode (model correction matrix)"
    },
    {
      "children": [
        3
      ],
      "matrix": [
        1,
        0,
        0,
        0,
        0,
        0,
        1,
        0,
        0,
        -1,
        0,
        0,
        0,
        0,
        0,
        1
      ],
      "name": "6ed0748777384f9bbabfaa1ae09698ec.fbx"
    },
    {
      "children": [
        4
      ],
      "name": "RootNode"
    },
    {
      "children": [
        5
      ],
      "matrix": [
        0.48999997973442078,
        0,
        0,
        0,
        0,
        1.0880185191340281e-16,
        -0.48999997973442078,
        0,
        0,
        0.48999997973442078,
        1.0880185191340281e-16,
        0,
        7.4768063313968014e-06,
        0,
        -7.4768063313968014e-06,
        1
      ],
      "name": "Windmill"
    },
    {
      "children": [
        6,
        7,
        9
      ],
      "name": ""
    },
    {
      "name": "_rootJoint"
    },
    {
      "children": [
        8
      ],
      "matrix": [
        0.99999977145877494,
        0,
        0,
        0,
        0,
        -4.3711376459294968e-08,
        -0.99999977145877483,
        0,
        0,
        0.99999977145877483,
        -4.3711376459294968e-08,
        0,
        -8.640197390018256e-13,
        -3.6228453505378344e-12,
        1.7851048355055354e-06,
        1
      ],
      "name": ""
    },
    {
      "mesh": 0,
      "name": ""
    },
    {
      "children": [
        10
      ],
      "matrix": [
        0.99999983227983336,
        0,
        0,
        0,
        0,
        -4.3711376453332941e-08,
        -0.99999983227983325,
        0,
        0,
        0.99999983227983325,
        -4.3711376453332941e-08,
        0,
        4.6288794433920148e-20,
        1.1105879438311206e-08,
        1.515634007631661e-06,
        1
      ],
      "name": ""
    },
    {
      "mesh": 1,
      "name": ""
    }
  ],
  "samplers": [
    {
      "magFilter": 9729,
      "minFilter": 9987,
      "wrapS": 10497,
      "wrapT": 10497
    }
  ],
  "scene": 0,
  "scenes": [
    {
      "name": "OSG_Scene",
      "nodes": [
        0
      ]
    }
  ],
  "skins": [
    {
      "inverseBindMatrices": 10,
      "joints": [
        6
      ],
      "skeleton": 6
    }
  ],
  "textures": [
    {
      "sampler": 0,
      "source": 0
    },
    {
      "sampler": 0,
      "source": 1
    }
  ]
}

