{
  "accessors": [
    {
      "bufferView": 2,
      "componentType": 5126,
      "count": 65532,
      "max": [
        6.974606990814209,
        13.716012954711914,
        1.5812710523605347
      ],
      "min": [
        -1.0469939708709717,
        8.631378173828125,
        -2.7276020050048828
      ],
      "type": "VEC3"
    },
    {
      "bufferView": 2,
      "byteOffset": 786384,
      "componentType": 5126,
      "count": 65532,
      "max": [
        0.99995750188827515,
        0.9999842643737793,
        0.9999881386756897
      ],
      "min": [
        -0.99993574619293213,
        -0.99998724460601807,
        -0.99999898672103882
      ],
      "type": "VEC3"
    },
    {
      "bufferView": 3,
      "componentType": 5126,
      "count": 65532,
      "max": [
        0.99998492002487183,
        0.99998283386230469,
        0.99992865324020386,
        1
      ],
      "min": [
        -0.99997979402542114,
        -0.9999309778213501,
        -0.99996596574783325,
        -1
      ],
      "type": "VEC4"
    },
    {
      "bufferView": 1,
      "componentType": 5126,
      "count": 65532,
      "max": [
        0.99715101718902588,
        0.99924200773239136
      ],
      "min": [
        0.00052599998889490962,
        0.00012500000593718141
      ],
      "type": "VEC2"
    },
    {
      "bufferView": 0,
      "componentType": 5125,
      "count": 364359,
      "max": [
        65531
      ],
      "min": [
        0
      ],
      "type": "SCALAR"
    },
    {
      "bufferView": 2,
      "byteOffset": 1572768,
      "componentType": 5126,
      "count": 65532,
      "max": [
        1.8834129571914673,
        14.848420143127441,
        2.0103750228881836
      ],
      "min": [
        -4.0399999618530273,
        6.7141852378845215,
        -2.8519999980926514
      ],
      "type": "VEC3"
    },
    {
      "bufferView": 2,
      "byteOffset": 2359152,
      "componentType": 5126,
      "count": 65532,
      "max": [
        0.99983000755310059,
        0.99999886751174927,
        0.99999874830245972
      ],
      "min": [
        -0.99998873472213745,
        -0.99997574090957642,
        -0.99996066093444824
      ],
      "type": "VEC3"
    },
    {
      "bufferView": 3,
      "byteOffset": 1048512,
      "componentType": 5126,
      "count": 65532,
      "max": [
        0.99996107816696167,
        0.99997347593307495,
        0.99992865324020386,
        1
      ],
      "min": [
        -0.99993312358856201,
        -0.99989980459213257,
        -0.99994564056396484,
        -1
      ],
      "type": "VEC4"
    },
    {
      "bufferView": 1,
      "byteOffset": 524256,
      "componentType": 5126,
      "count": 65532,
      "max": [
        0.99552702903747559,
        0.99514901638031006
      ],
      "min": [
        0,
        0.0010629999451339245
      ],
      "type": "VEC2"
    },
    {
      "bufferView": 0,
      "byteOffset": 1457436,
      "componentType": 5125,
      "count": 352155,
      "max": [
        65531
      ],
      "min": [
        0
      ],
      "type": "SCALAR"
    },
    {
      "bufferView": 2,
      "byteOffset": 3145536,
      "componentType": 5126,
      "count": 8355,
      "max": [
        4.3687839508056641,
        14.846000671386719,
        2.0103750228881836
      ],
      "min": [
        -4.0588908195495605,
        6.741671085357666,
        -2.3066580295562744
      ],
      "type": "VEC3"
    },
    {
      "bufferView": 2,
      "byteOffset": 3245796,
      "componentType": 5126,
      "count": 8355,
      "max": [
        0.9824555516242981,
        0.99867385625839233,
        0.99972724914550781
      ],
      "min": [
        -0.99996626377105713,
        -0.9999881386756897,
        -0.99932700395584106
      ],
      "type": "VEC3"
    },
    {
      "bufferView": 3,
      "byteOffset": 2097024,
      "componentType": 5126,
      "count": 8355,
      "max": [
        0.99968814849853516,
        0.97199422121047974,
        0.99815720319747925,
        1
      ],
      "min": [
        -0.99989515542984009,
        -0.99961519241333008,
        -0.99875771999359131,
        -1
      ],
      "type": "VEC4"
    },
    {
      "bufferView": 1,
      "byteOffset": 1048512,
      "componentType": 5126,
      "count": 8355,
      "max": [
        0.97460001707077026,
        0.99239599704742432
      ],
      "min": [
        0,
        0.015553999692201614
      ],
      "type": "VEC2"
    },
    {
      "bufferView": 0,
      "byteOffset": 2866056,
      "componentType": 5125,
      "count": 33486,
      "max": [
        8354
      ],
      "min": [
        0
      ],
      "type": "SCALAR"
    }
  ],
  "asset": {
    "extras": {
      "author": "DocCopemys (https://sketchfab.com/DocCopemys)",
      "license": "CC-BY-SA-4.0 (http://creativecommons.org/licenses/by-sa/4.0/)",
      "source": "https://sketchfab.com/models/bb55baca83374c649ae2818b48a7b6db",
      "title": "Baby Bison Cranium"
    },
    "generator": "Sketchfab-3.35.5",
    "version": "2.0"
  },
  "bufferViews": [
    {
      "buffer": 0,
      "byteLength": 3000000,
      "byteOffset": 0,
      "name": "floatBufferViews",
      "target": 34963
    },
    {
      "buffer": 0,
      "byteLength": 1115352,
      "byteOffset": 3000000,
      "byteStride": 8,
      "name": "floatBufferViews",
      "target": 34962
    },
    {
      "buffer": 0,
      "byteLength": 3346056,
      "byteOffset": 4115352,
      "byteStride": 12,
      "name": "floatBufferViews",
      "target": 34962
    },
    {
      "buffer": 0,
      "byteLength": 2230704,
      "byteOffset": 7461408,
      "byteStride": 16,
      "name": "floatBufferViews",
      "target": 34962
    }
  ],
  "buffers": [
    {
      "byteLength": 9692112,
      "uri": "scene.bin"
    }
  ],
  "images": [
    {
      "uri": "textures/Baby_Bison_Cranium_baseColor.jpeg"
    }
  ],
  "materials": [
    {
      "doubleSided": true,
      "emissiveFactor": [
        0,
        0,
        0
      ],
      "name": "Baby_Bison_Cranium",
      "pbrMetallicRoughness": {
        "baseColorFactor": [
          1,
          1,
          1,
          1
        ],
        "baseColorTexture": {
          "index": 0,
          "texCoord": 0
        },
        "metallicFactor": 0,
        "roughnessFactor": 1
      }
    }
  ],
  "meshes": [
    {
      "primitives": [
        {
          "attributes": {
            "NORMAL": 1,
            "POSITION": 0,
            "TANGENT": 2,
            "TEXCOORD_0": 3
          },
          "indices": 4,
          "material": 0,
          "mode": 4
        }
      ]
    },
    {
      "primitives": [
        {
          "attributes": {
            "NORMAL": 6,
            "POSITION": 5,
            "TANGENT": 7,
            "TEXCOORD_0": 8
          },
          "indices": 9,
          "material": 0,
          "mode": 4
        }
      ]
    },
    {
      "primitives": [
        {
          "attributes": {
            "NORMAL": 11,
            "POSITION": 10,
            "TANGENT": 12,
            "TEXCOORD_0": 13
          },
          "indices": 14,
          "material": 0,
          "mode": 4
        }
      ]
    }
  ],
  "nodes": [
    {
      "children": [
        1
      ],
      "name": "RootNode (gltf orientation matrix)",
      "rotation": [
        -0.70710678118654746,
        -0,
        -0,
        0.70710678118654757
      ]
    },
    {
      "children": [
        2
      ],
      "name": "RootNode (model correction matrix)"
    },
    {
      "children": [
        3,
        4,
        5
      ],
      "name": "Baby_Bison_Cranium.obj.cleaner.materialmerger.gles"
    },
    {
      "mesh": 0,
      "name": ""
    },
    {
      "mesh": 1,
      "name": ""
    },
    {
      "mesh": 2,
      "name": ""
    }
  ],
  "samplers": [
    {
      "magFilter": 9729,
      "minFilter": 9987,
      "wrapS": 10497,
      "wrapT": 10497
    }
  ],
  "scene": 0,
  "scenes": [
    {
      "name": "OSG_Scene",
      "nodes": [
        0
      ]
    }
  ],
  "textures": [
    {
      "sampler": 0,
      "source": 0
    }
  ]
}

