{
  "accessors": [
    {
      "bufferView": 2,
      "componentType": 5126,
      "count": 3362,
      "max": [
        2.8458294868469238,
        1.0163809061050415,
        5.7910647392272949
      ],
      "min": [
        -4.3179244995117188,
        -1.0163809061050415,
        -0.0083408355712890625
      ],
      "type": "VEC3"
    },
    {
      "bufferView": 2,
      "byteOffset": 40344,
      "componentType": 5126,
      "count": 3362,
      "max": [
        0.9996180534362793,
        0.99970030784606934,
        1
      ],
      "min": [
        -0.9998323917388916,
        -1,
        -1
      ],
      "type": "VEC3"
    },
    {
      "bufferView": 3,
      "componentType": 5126,
      "count": 3362,
      "max": [
        0.99997705221176147,
        0.99887388944625854,
        0.99996381998062134,
        1
      ],
      "min": [
        -0.99968451261520386,
        -0.99887388944625854,
        -0.99964296817779541,
        -1
      ],
      "type": "VEC4"
    },
    {
      "bufferView": 1,
      "componentType": 5126,
      "count": 3362,
      "max": [
        0.98829293251037598,
        1
      ],
      "min": [
        0.00024779140949249268,
        -0.0093805491924285889
      ],
      "type": "VEC2"
    },
    {
      "bufferView": 1,
      "byteOffset": 26896,
      "componentType": 5126,
      "count": 3362,
      "max": [
        0.98829293251037598,
        1
      ],
      "min": [
        0.00024779140949249268,
        -0.0093805491924285889
      ],
      "type": "VEC2"
    },
    {
      "bufferView": 1,
      "byteOffset": 53792,
      "componentType": 5126,
      "count": 3362,
      "max": [
        0.98829293251037598,
        1
      ],
      "min": [
        0.00024779140949249268,
        -0.0093805491924285889
      ],
      "type": "VEC2"
    },
    {
      "bufferView": 0,
      "componentType": 5125,
      "count": 14844,
      "max": [
        3361
      ],
      "min": [
        0
      ],
      "type": "SCALAR"
    }
  ],
  "asset": {
    "extras": {
      "author": "leoskateman (https://sketchfab.com/leoskateman)",
      "license": "CC-BY-SA-4.0 (http://creativecommons.org/licenses/by-sa/4.0/)",
      "source": "https://sketchfab.com/models/34d4e9d8837549199658133c36643bf0",
      "title": "Horse textured (low poly)"
    },
    "generator": "Sketchfab-3.33.1",
    "version": "2.0"
  },
  "bufferViews": [
    {
      "buffer": 0,
      "byteLength": 59376,
      "byteOffset": 0,
      "name": "floatBufferViews",
      "target": 34963
    },
    {
      "buffer": 0,
      "byteLength": 80688,
      "byteOffset": 59376,
      "byteStride": 8,
      "name": "floatBufferViews",
      "target": 34962
    },
    {
      "buffer": 0,
      "byteLength": 80688,
      "byteOffset": 140064,
      "byteStride": 12,
      "name": "floatBufferViews",
      "target": 34962
    },
    {
      "buffer": 0,
      "byteLength": 53792,
      "byteOffset": 220752,
      "byteStride": 16,
      "name": "floatBufferViews",
      "target": 34962
    }
  ],
  "buffers": [
    {
      "byteLength": 274544,
      "uri": "scene.bin"
    }
  ],
  "images": [
    {
      "uri": "textures/Material_baseColor.png"
    },
    {
      "uri": "textures/Material_normal.png"
    }
  ],
  "materials": [
    {
      "alphaCutoff": 0.29109019149999998,
      "alphaMode": "MASK",
      "doubleSided": true,
      "name": "Material",
      "normalTexture": {
        "index": 1,
        "scale": 1,
        "texCoord": 0
      },
      "pbrMetallicRoughness": {
        "baseColorFactor": [
          1,
          1,
          1,
          1
        ],
        "baseColorTexture": {
          "index": 0,
          "texCoord": 0
        },
        "metallicFactor": 0,
        "roughnessFactor": 0.50492666949999998
      }
    }
  ],
  "meshes": [
    {
      "name": "Cylinder.001_Material_0",
      "primitives": [
        {
          "attributes": {
            "NORMAL": 1,
            "POSITION": 0,
            "TANGENT": 2,
            "TEXCOORD_0": 3,
            "TEXCOORD_1": 4,
            "TEXCOORD_2": 5
          },
          "indices": 6,
          "material": 0,
          "mode": 4
        }
      ]
    }
  ],
  "nodes": [
    {
      "children": [
        1
      ],
      "name": "RootNode (gltf orientation matrix)",
      "rotation": [
        -0.70710678118654746,
        -0,
        -0,
        0.70710678118654757
      ]
    },
    {
      "children": [
        2
      ],
      "name": "RootNode (model correction matrix)"
    },
    {
      "children": [
        3
      ],
      "matrix": [
        1,
        0,
        0,
        0,
        0,
        0,
        1,
        0,
        0,
        -1,
        0,
        0,
        0,
        0,
        0,
        1
      ],
      "name": "47cbcadda86041eb9e66a3e0043ab1ca.fbx"
    },
    {
      "children": [
        4
      ],
      "name": "RootNode"
    },
    {
      "children": [
        5
      ],
      "matrix": [
        100,
        0,
        0,
        0,
        0,
        -1.6292067939183141e-05,
        -99.999999999998678,
        0,
        0,
        99.999999999998678,
        -1.6292067939183141e-05,
        0,
        79.725242614746094,
        -5.3213238716125488,
        0,
        1
      ],
      "name": "Cylinder.001"
    },
    {
      "mesh": 0,
      "name": "Cylinder.001_Material_0"
    }
  ],
  "samplers": [
    {
      "magFilter": 9729,
      "minFilter": 9987,
      "wrapS": 10497,
      "wrapT": 10497
    }
  ],
  "scene": 0,
  "scenes": [
    {
      "name": "OSG_Scene",
      "nodes": [
        0
      ]
    }
  ],
  "textures": [
    {
      "sampler": 0,
      "source": 0
    },
    {
      "sampler": 0,
      "source": 1
    }
  ]
}

