{
  "accessors": [
    {
      "bufferView": 2,
      "componentType": 5126,
      "count": 768,
      "max": [
        0.95822000503540039,
        0.93509000539779663,
        0.73816001415252686
      ],
      "min": [
        -0.95822000503540039,
        -0.93509000539779663,
        0.61969000101089478
      ],
      "type": "VEC3"
    },
    {
      "bufferView": 2,
      "byteOffset": 9216,
      "componentType": 5126,
      "count": 768,
      "max": [
        0.99978786706924438,
        0.99999994039535522,
        0.99998122453689575
      ],
      "min": [
        -0.99978786706924438,
        -0.99999994039535522,
        -0.97869193553924561
      ],
      "type": "VEC3"
    },
    {
      "bufferView": 3,
      "componentType": 5126,
      "count": 768,
      "max": [
        0,
        0,
        0,
        1
      ],
      "min": [
        0,
        0,
        0,
        1
      ],
      "type": "VEC4"
    },
    {
      "bufferView": 0,
      "componentType": 5125,
      "count": 4608,
      "max": [
        767
      ],
      "min": [
        0
      ],
      "type": "SCALAR"
    },
    {
      "bufferView": 2,
      "byteOffset": 18432,
      "componentType": 5126,
      "count": 768,
      "max": [
        0.95822000503540039,
        0.93509000539779663,
        0.73816001415252686
      ],
      "min": [
        -0.95822000503540039,
        -0.93509000539779663,
        0.61969000101089478
      ],
      "type": "VEC3"
    },
    {
      "bufferView": 2,
      "byteOffset": 27648,
      "componentType": 5126,
      "count": 768,
      "max": [
        0.99978786706924438,
        0.99999994039535522,
        0.99998122453689575
      ],
      "min": [
        -0.99978786706924438,
        -0.99999994039535522,
        -0.97869193553924561
      ],
      "type": "VEC3"
    },
    {
      "bufferView": 3,
      "byteOffset": 12288,
      "componentType": 5126,
      "count": 768,
      "max": [
        0,
        0,
        0,
        1
      ],
      "min": [
        0,
        0,
        0,
        1
      ],
      "type": "VEC4"
    },
    {
      "bufferView": 0,
      "byteOffset": 18432,
      "componentType": 5125,
      "count": 4608,
      "max": [
        767
      ],
      "min": [
        0
      ],
      "type": "SCALAR"
    },
    {
      "bufferView": 2,
      "byteOffset": 36864,
      "componentType": 5126,
      "count": 32,
      "max": [
        0.58577001094818115,
        0.58577001094818115,
        2.7504498958587646
      ],
      "min": [
        -0.58577001094818115,
        -0.58577001094818115,
        2.7504498958587646
      ],
      "type": "VEC3"
    },
    {
      "bufferView": 2,
      "byteOffset": 37248,
      "componentType": 5126,
      "count": 32,
      "max": [
        0,
        0,
        1
      ],
      "min": [
        0,
        0,
        1
      ],
      "type": "VEC3"
    },
    {
      "bufferView": 3,
      "byteOffset": 24576,
      "componentType": 5126,
      "count": 32,
      "max": [
        0.99523520469665527,
        0.098566442728042603,
        0,
        1
      ],
      "min": [
        0.99513053894042969,
        0.097503460943698883,
        0,
        1
      ],
      "type": "VEC4"
    },
    {
      "bufferView": 1,
      "componentType": 5126,
      "count": 32,
      "max": [
        0.99989998340606689,
        0.99989998340606689
      ],
      "min": [
        9.9999997473787516e-05,
        9.9999997473787516e-05
      ],
      "type": "VEC2"
    },
    {
      "bufferView": 0,
      "byteOffset": 36864,
      "componentType": 5125,
      "count": 90,
      "max": [
        31
      ],
      "min": [
        0
      ],
      "type": "SCALAR"
    },
    {
      "bufferView": 2,
      "byteOffset": 37632,
      "componentType": 5126,
      "count": 1233,
      "max": [
        0.99519997835159302,
        0.99519997835159302,
        2.8104701042175293
      ],
      "min": [
        -0.99519997835159302,
        -0.99519997835159302,
        -0.0093499999493360519
      ],
      "type": "VEC3"
    },
    {
      "bufferView": 2,
      "byteOffset": 52428,
      "componentType": 5126,
      "count": 1233,
      "max": [
        1,
        1,
        1
      ],
      "min": [
        -1,
        -1,
        -1
      ],
      "type": "VEC3"
    },
    {
      "bufferView": 3,
      "byteOffset": 25088,
      "componentType": 5126,
      "count": 1233,
      "max": [
        1,
        1,
        0.999991774559021,
        1
      ],
      "min": [
        -1,
        -1,
        -0.99999231100082397,
        1
      ],
      "type": "VEC4"
    },
    {
      "bufferView": 1,
      "byteOffset": 256,
      "componentType": 5126,
      "count": 1233,
      "max": [
        0.9559900164604187,
        0.92745000123977661
      ],
      "min": [
        0.048360001295804977,
        0.028000000864267349
      ],
      "type": "VEC2"
    },
    {
      "bufferView": 0,
      "byteOffset": 37224,
      "componentType": 5125,
      "count": 6336,
      "max": [
        1232
      ],
      "min": [
        0
      ],
      "type": "SCALAR"
    }
  ],
  "asset": {
    "extras": {
      "author": "bondaru (https://sketchfab.com/bondaru)",
      "license": "CC-BY-4.0 (http://creativecommons.org/licenses/by/4.0/)",
      "source": "https://sketchfab.com/models/68e97a274edd402797853c36b1009924",
      "title": "Barrel"
    },
    "generator": "Sketchfab-3.18.7",
    "version": "2.0"
  },
  "bufferViews": [
    {
      "buffer": 0,
      "byteLength": 62568,
      "byteOffset": 0,
      "name": "floatBufferViews",
      "target": 34963
    },
    {
      "buffer": 0,
      "byteLength": 10120,
      "byteOffset": 62568,
      "byteStride": 8,
      "name": "floatBufferViews",
      "target": 34962
    },
    {
      "buffer": 0,
      "byteLength": 67224,
      "byteOffset": 72688,
      "byteStride": 12,
      "name": "floatBufferViews",
      "target": 34962
    },
    {
      "buffer": 0,
      "byteLength": 44816,
      "byteOffset": 139912,
      "byteStride": 16,
      "name": "floatBufferViews",
      "target": 34962
    }
  ],
  "buffers": [
    {
      "byteLength": 184728,
      "uri": "scene.bin"
    }
  ],
  "extensionsRequired": [
    "KHR_materials_pbrSpecularGlossiness"
  ],
  "extensionsUsed": [
    "KHR_materials_pbrSpecularGlossiness"
  ],
  "images": [
    {
      "uri": "textures/Material.022_diffuse.jpeg"
    },
    {
      "uri": "textures/Material.020_diffuse.jpeg"
    },
    {
      "uri": "textures/Material.020_normal.png"
    }
  ],
  "materials": [
    {
      "doubleSided": true,
      "emissiveFactor": [
        0,
        0,
        0
      ],
      "extensions": {
        "KHR_materials_pbrSpecularGlossiness": {
          "diffuseFactor": [
            1,
            1,
            1,
            1
          ],
          "diffuseTexture": {
            "index": 1,
            "texCoord": 0
          },
          "glossinessFactor": 0.81000000000000005,
          "specularFactor": [
            0.66000000000000003,
            0.66000000000000003,
            0.66000000000000003
          ]
        }
      },
      "name": "Material.020",
      "normalTexture": {
        "index": 2,
        "scale": 0.40000000000000002,
        "texCoord": 0
      }
    },
    {
      "doubleSided": true,
      "emissiveFactor": [
        0,
        0,
        0
      ],
      "extensions": {
        "KHR_materials_pbrSpecularGlossiness": {
          "diffuseFactor": [
            1,
            1,
            1,
            1
          ],
          "diffuseTexture": {
            "index": 0,
            "texCoord": 0
          },
          "glossinessFactor": 0.84999999999999998,
          "specularFactor": [
            0.54360006772999991,
            0.54360006772999991,
            0.54360006772999991
          ]
        }
      },
      "name": "Material.022"
    },
    {
      "doubleSided": true,
      "emissiveFactor": [
        0,
        0,
        0
      ],
      "extensions": {
        "KHR_materials_pbrSpecularGlossiness": {
          "diffuseFactor": [
            0.0046469190999999998,
            0.0031323115000000002,
            0.0031323115000000002,
            1
          ],
          "glossinessFactor": 0.72999999999999998,
          "specularFactor": [
            0.59200000880600001,
            0.59200000880600001,
            0.59200000880600001
          ]
        }
      },
      "name": "Material.021"
    }
  ],
  "meshes": [
    {
      "name": "Cylinder.015_0",
      "primitives": [
        {
          "attributes": {
            "NORMAL": 1,
            "POSITION": 0,
            "TANGENT": 2
          },
          "indices": 3,
          "material": 2,
          "mode": 4
        }
      ]
    },
    {
      "name": "Cylinder.013_0",
      "primitives": [
        {
          "attributes": {
            "NORMAL": 5,
            "POSITION": 4,
            "TANGENT": 6
          },
          "indices": 7,
          "material": 2,
          "mode": 4
        }
      ]
    },
    {
      "name": "Cylinder.012_0",
      "primitives": [
        {
          "attributes": {
            "NORMAL": 9,
            "POSITION": 8,
            "TANGENT": 10,
            "TEXCOORD_0": 11
          },
          "indices": 12,
          "material": 1,
          "mode": 4
        }
      ]
    },
    {
      "name": "Cylinder.011_0",
      "primitives": [
        {
          "attributes": {
            "NORMAL": 14,
            "POSITION": 13,
            "TANGENT": 15,
            "TEXCOORD_0": 16
          },
          "indices": 17,
          "material": 0,
          "mode": 4
        }
      ]
    }
  ],
  "nodes": [
    {
      "children": [
        1
      ],
      "name": "RootNode (gltf orientation matrix)",
      "rotation": [
        -0.70710678118654746,
        -0,
        -0,
        0.70710678118654757
      ]
    },
    {
      "children": [
        2
      ],
      "name": "RootNode (model correction matrix)"
    },
    {
      "children": [
        3,
        5,
        7,
        9,
        11
      ],
      "name": "Root"
    },
    {
      "children": [
        4
      ],
      "matrix": [
        1.9209899999999998,
        0,
        0,
        0,
        0,
        1.9209899999999998,
        0,
        0,
        0,
        0,
        1.9209899999999998,
        0,
        -0.11464000000000002,
        0.28349000000000002,
        0.82477000000000011,
        1
      ],
      "name": "Cylinder.015"
    },
    {
      "mesh": 0,
      "name": "Cylinder.015_0"
    },
    {
      "children": [
        6
      ],
      "matrix": [
        1.9209899999999998,
        0,
        0,
        0,
        0,
        1.9209899999999998,
        0,
        0,
        0,
        0,
        1.9209899999999998,
        0,
        -0.11464000000000002,
        0.28349000000000002,
        -1.8274599999999999,
        1
      ],
      "name": "Cylinder.013"
    },
    {
      "mesh": 1,
      "name": "Cylinder.013_0"
    },
    {
      "children": [
        8
      ],
      "matrix": [
        1.9209899999999998,
        0,
        0,
        0,
        0,
        1.9209899999999998,
        0,
        0,
        0,
        0,
        1.9209899999999998,
        0,
        -0.11464000000000002,
        0.28349000000000002,
        -1.8274599999999999,
        1
      ],
      "name": "Cylinder.012"
    },
    {
      "mesh": 2,
      "name": "Cylinder.012_0"
    },
    {
      "children": [
        10
      ],
      "matrix": [
        1.9209899999999998,
        0,
        0,
        0,
        0,
        1.9209899999999998,
        0,
        0,
        0,
        0,
        1.9209899999999998,
        0,
        -0.11464000000000002,
        0.28349000000000002,
        -1.8274599999999999,
        1
      ],
      "name": "Cylinder.011"
    },
    {
      "mesh": 3,
      "name": "Cylinder.011_0"
    },
    {
      "children": [
        12
      ],
      "matrix": [
        -0.29086000000000006,
        0.95517000000000007,
        -0.05519000000000001,
        0,
        -0.77110000000000001,
        -0.19988000000000003,
        0.60452000000000006,
        0,
        0.56639000000000006,
        0.21839000000000003,
        0.7946700000000001,
        0,
        4.0762500000000008,
        1.00545,
        5.9038600000000008,
        1
      ],
      "name": "Lamp"
    },
    {
      "name": "Lamp"
    }
  ],
  "samplers": [
    {
      "magFilter": 9729,
      "minFilter": 9987,
      "wrapS": 10497,
      "wrapT": 10497
    }
  ],
  "scene": 0,
  "scenes": [
    {
      "name": "OSG_Scene",
      "nodes": [
        0
      ]
    }
  ],
  "textures": [
    {
      "sampler": 0,
      "source": 0
    },
    {
      "sampler": 0,
      "source": 1
    },
    {
      "sampler": 0,
      "source": 2
    }
  ]
}

